<svg width="14" height="16" viewBox="0 0 14 16" fill="none" xmlns="http://www.w3.org/2000/svg">
<path d="M11.5961 11.5961L8.06108 15.1321C7.92178 15.2715 7.75638 15.3821 7.57433 15.4575C7.39228 15.5329 7.19714 15.5718 7.00008 15.5718C6.80302 15.5718 6.60788 15.5329 6.42583 15.4575C6.24378 15.3821 6.07838 15.2715 5.93908 15.1321L2.40408 11.5961C1.80046 10.9925 1.32163 10.276 0.994924 9.48739C0.668222 8.69878 0.500046 7.85355 0.5 6.99994C0.499954 6.14634 0.668037 5.30109 0.994654 4.51244C1.32127 3.7238 1.80002 3.00721 2.40358 2.40359C3.00713 1.79997 3.72367 1.32114 4.51228 0.994436C5.30089 0.667734 6.14612 0.499558 6.99973 0.499512C7.85333 0.499465 8.69858 0.667549 9.48723 0.994166C10.2759 1.32078 10.9925 1.79954 11.5961 2.40309C12.1998 3.00668 12.6786 3.72328 13.0053 4.51195C13.332 5.30062 13.5002 6.14593 13.5002 6.99959C13.5002 7.85326 13.332 8.69856 13.0053 9.48723C12.6786 10.2759 12.1998 10.9925 11.5961 11.5961ZM10.5361 3.46409C9.59827 2.52629 8.32634 1.99843 7.00008 1.99843C5.67382 1.99843 4.40188 2.52529 3.46408 3.46309C2.52627 4.4009 1.99942 5.67283 1.99942 6.99909C1.99942 8.32535 2.52627 9.59728 3.46408 10.5351L7.00008 14.0701L10.5361 10.5361C11.0005 10.0718 11.3689 9.52053 11.6203 8.91381C11.8716 8.3071 12.001 7.65681 12.001 7.00009C12.001 6.34337 11.8716 5.69308 11.6203 5.08637C11.3689 4.47966 11.0005 3.9284 10.5361 3.46409ZM7.00008 9.00009C6.73374 9.00611 6.46888 8.95887 6.22105 8.86112C5.97323 8.76337 5.74743 8.6171 5.55691 8.43089C5.36639 8.24467 5.21499 8.02228 5.11161 7.77675C5.00822 7.53122 4.95493 7.26751 4.95486 7.0011C4.9548 6.7347 5.00796 6.47096 5.11122 6.22538C5.21448 5.9798 5.36577 5.75732 5.55619 5.57102C5.74662 5.38471 5.97235 5.23832 6.22012 5.14045C6.4679 5.04258 6.73274 4.9952 6.99908 5.00109C7.52164 5.01265 8.01891 5.22832 8.38445 5.60193C8.74998 5.97554 8.95473 6.47741 8.95486 7.0001C8.95499 7.52279 8.7505 8.02476 8.38515 8.39856C8.0198 8.77236 7.52263 8.98827 7.00008 9.00009Z" fill="black"/>
</svg>
