<svg width="14" height="16" viewBox="0 0 981 984" fill="none" xmlns="http://www.w3.org/2000/svg">
<g clip-path="url(#clip0_106_410)">
<path d="M55.5 982.5C34.8 977.9 17.4 964.9 8 946.9C5.9 942.8 3.2 936 2 931.9L0 924.4L0.2 524.9L0.5 125.5L3.2 118.2C7.2 107.2 11.6 100.4 20.5 91.5C29.4 82.6 36.2 78.2 47.2 74.2L54.5 71.5L308.3 71.2L562 71V105.5V140H315H68V526.5V913H455H842V667.5V422H877.5H913L912.8 674.8L912.5 927.5L909.6 935.9C902.3 956.7 885.7 973.2 864.5 980.7L856.5 983.5L459 983.7C131.9 983.8 60.4 983.6 55.5 982.5Z" fill="black"/>
<path d="M241.6 736.8C242 735.5 254.1 697.3 268.6 651.9C292.7 576.4 295 568.7 295 562.3C295 550.1 301.2 531.9 308.3 523.4C309.6 521.8 311.1 519.3 311.6 517.7C312.5 515.1 314.6 517.1 388.9 591.4C464.5 667 465.4 667.9 462.6 669C461.1 669.5 457.8 671.4 455.4 673.1C444.6 680.5 432.8 684.4 417.9 685.5C409.3 686.2 401.4 688.5 325.7 712.6C280.1 727.1 242.4 739 241.9 739C241.3 739 241.2 738.1 241.6 736.8Z" fill="black"/>
<path d="M439 540.5L364.5 466L537.5 293C632.6 197.8 710.8 120.1 711.1 120.2C711.5 120.4 745.4 153.9 786.6 194.7L861.5 269L688.5 442C593.4 537.1 515.1 615 514.5 615C513.9 615 480 581.5 439 540.5Z" fill="black"/>
<path d="M836 143.5L761.5 68.9998L789.5 41.1998C819.9 11.0998 823.8 8.09975 838.5 3.39975C856 -2.20025 874.6 -0.700247 892 7.69975C901.5 12.1998 901.5 12.2998 932.8 43.3998C950.1 60.4998 966 77.0998 968.2 80.2998C976.6 92.5998 980.2 104.6 980.1 120.5C980.1 135.9 976.3 148.3 967.7 161C964.2 166.2 913.2 218 911.6 218C911 218 877 184.5 836 143.5Z" fill="black"/>
<path d="M258.199 983.3C366.899 983.1 545.099 983.1 654.199 983.3C763.299 983.4 674.299 983.5 456.499 983.5C238.699 983.5 149.499 983.4 258.199 983.3Z" fill="white"/>
<path d="M859.499 981C872.999 977.4 883.999 971.1 892.699 961.8C901.699 952.1 906.599 943.3 909.999 930.5C911.099 926.7 911.899 924.6 911.899 926C911.999 930.3 906.399 944.7 902.099 951.3C896.599 959.7 887.999 968.2 879.499 973.5C872.399 977.9 858.999 983 854.799 982.9C853.499 982.9 855.699 982.1 859.499 981Z" fill="white"/>
<path d="M49.4996 981C48.1996 980.5 48.0996 980.1 48.9996 980.1C49.7996 980.1 51.3996 980.5 52.4996 981C53.7996 981.5 53.8996 981.9 52.9996 981.9C52.1996 981.9 50.5996 981.5 49.4996 981Z" fill="white"/>
<path d="M39.4994 977.1C30.8994 973 21.9994 966.1 15.8994 958.8C10.5994 952.5 3.59937 939.1 2.49937 933.5C2.19937 931.8 2.79937 932.7 3.79937 935.5C10.8994 954.3 22.7994 967.8 39.4994 976.1C43.8994 978.2 47.0994 980 46.4994 980C45.9994 980 42.7994 978.7 39.4994 977.1Z" fill="white"/>
<path d="M0.599609 926.9C0.299609 925.2 0.0996094 922.6 0.0996094 921.1C0.199609 919.7 0.599609 920.9 1.09961 923.9C2.09961 929.7 1.69961 932.2 0.599609 926.9Z" fill="white"/>
<path d="M912.5 672.5C912.5 534.5 912.6 478.1 912.7 547.3C912.9 616.5 912.9 729.5 912.7 798.3C912.6 867.2 912.5 810.6 912.5 672.5Z" fill="white"/>
<path d="M455 913.3L842 913L842.3 667.5L842.5 422V667.7V913.5H455.2H68L455 913.3Z" fill="white"/>
<path d="M241.099 738.3C241.099 737.8 241.599 736.6 242.099 735.5C242.999 733.6 242.999 733.6 242.599 735.7C242.399 736.9 242.699 738.1 243.399 738.4C243.999 738.6 243.699 738.9 242.799 738.9C241.799 739 240.999 738.7 241.099 738.3Z" fill="white"/>
<path d="M252.999 734.9C257.599 733.3 261.899 732 262.499 732.1C262.999 732.1 259.699 733.5 254.999 735.1C250.399 736.7 246.099 738 245.499 737.9C244.999 737.9 248.299 736.5 252.999 734.9Z" fill="white"/>
<path d="M244.099 729.5C243.999 728.9 245.299 724.6 246.899 720C248.499 715.3 249.899 712 249.899 712.5C249.999 713.1 248.699 717.4 247.099 722C245.499 726.7 244.099 730 244.099 729.5Z" fill="white"/>
<path d="M277.999 726.9C282.599 725.3 286.899 724 287.499 724.1C287.999 724.1 284.699 725.5 279.999 727.1C275.399 728.7 271.099 730 270.499 729.9C269.999 729.9 273.299 728.5 277.999 726.9Z" fill="white"/>
<path d="M299.999 719.9C304.599 718.3 308.899 717 309.499 717.1C309.999 717.1 306.699 718.5 301.999 720.1C297.399 721.7 293.099 723 292.499 722.9C291.999 722.9 295.299 721.5 299.999 719.9Z" fill="white"/>
<path d="M324.999 711.9C329.599 710.3 333.899 709 334.499 709.1C334.999 709.1 331.699 710.5 326.999 712.1C322.399 713.7 318.099 715 317.499 714.9C316.999 714.9 320.299 713.5 324.999 711.9Z" fill="white"/>
<path d="M346.999 704.9C351.599 703.3 355.899 702 356.499 702.1C356.999 702.1 353.699 703.5 348.999 705.1C344.399 706.7 340.099 708 339.499 707.9C338.999 707.9 342.299 706.5 346.999 704.9Z" fill="white"/>
<path d="M252.099 704.5C251.999 703.9 253.299 699.6 254.899 695C256.499 690.3 257.899 687 257.899 687.5C257.999 688.1 256.699 692.4 255.099 697C253.499 701.7 252.099 705 252.099 704.5Z" fill="white"/>
<path d="M371.999 696.9C376.599 695.3 380.899 694 381.499 694.1C381.999 694.1 378.699 695.5 373.999 697.1C369.399 698.7 365.099 700 364.499 699.9C363.999 699.9 367.299 698.5 371.999 696.9Z" fill="white"/>
<path d="M395.499 689.4C400.899 687.5 405.899 686 406.499 686.1C406.999 686.1 402.999 687.7 397.499 689.6C392.099 691.5 387.099 693 386.499 692.9C385.999 692.9 389.999 691.3 395.499 689.4Z" fill="white"/>
<path d="M410.8 685.3C412.6 685.1 415.3 685.1 416.8 685.3C418.3 685.5 416.8 685.7 413.5 685.7C410.2 685.7 409 685.5 410.8 685.3Z" fill="white"/>
<path d="M423.299 684.3C424.199 684.1 425.799 684.1 426.799 684.3C427.699 684.6 426.899 684.8 424.999 684.8C423.099 684.8 422.299 684.6 423.299 684.3Z" fill="white"/>
<path d="M431 683C434.4 681.9 437 681.9 434.5 683C433.4 683.5 431.6 683.8 430.5 683.8C428.9 683.8 429 683.6 431 683Z" fill="white"/>
<path d="M259.099 682.5C258.999 681.9 260.499 676.9 262.399 671.5C264.299 666 265.899 662 265.899 662.5C265.999 663.1 264.499 668.1 262.599 673.5C260.699 679 259.099 683 259.099 682.5Z" fill="white"/>
<path d="M443.7 678.6C447.6 676.7 452.9 673.8 455.4 672.1C457.9 670.4 460.8 668.6 461.9 668.2C463.7 667.6 453.4 656.9 388 591.5C346.2 549.8 312.2 515.5 312.3 515.3C312.5 515.2 347 549.5 389 591.5C464.5 667 465.4 667.9 462.6 669C461.1 669.5 458 671.3 455.7 672.9C450.7 676.3 442.5 680.5 439 681.4C437.6 681.8 439.7 680.5 443.7 678.6Z" fill="white"/>
<path d="M267.099 657.5C266.999 656.9 268.299 652.6 269.899 648C271.499 643.3 272.899 640 272.899 640.5C272.999 641.1 271.699 645.4 270.099 650C268.499 654.7 267.099 658 267.099 657.5Z" fill="white"/>
<path d="M275.099 632.5C274.999 631.9 276.299 627.6 277.899 623C279.499 618.3 280.899 615 280.899 615.5C280.999 616.1 279.699 620.4 278.099 625C276.499 629.7 275.099 633 275.099 632.5Z" fill="white"/>
<path d="M439 540.5L364.5 466L537.5 293C632.6 197.8 710.8 120.1 711.1 120.2C711.5 120.4 745.4 153.9 786.6 194.7L861.5 269L688.5 442C593.4 537.1 515.1 615 514.5 615C513.9 615 480 581.5 439 540.5ZM687 441.5L859.5 269L785.2 194.8L711 120.5L538.3 293.2L365.5 466L439.5 540C480.2 580.7 513.7 614 514 614C514.3 614 592.1 536.4 687 441.5Z" fill="white"/>
<path d="M282.099 610.5C281.999 609.9 283.299 605.6 284.899 601C286.499 596.3 287.899 593 287.899 593.5C287.999 594.1 286.699 598.4 285.099 603C283.499 607.7 282.099 611 282.099 610.5Z" fill="white"/>
<path d="M290.099 585.5C289.999 584.9 291.299 580.6 292.899 576C294.499 571.3 295.899 568 295.899 568.5C295.999 569.1 294.699 573.4 293.099 578C291.499 582.7 290.099 586 290.099 585.5Z" fill="white"/>
<path d="M295.3 558C295.3 555.5 295.5 554.5 295.7 555.8C295.9 557 295.9 559 295.7 560.3C295.5 561.5 295.3 560.5 295.3 558Z" fill="white"/>
<path d="M297.499 545.5C298.399 540.9 304.099 529 307.599 524.4C309.299 522.2 310.999 519.7 311.299 518.9C311.699 518 311.899 517.9 311.899 518.7C311.999 519.4 310.499 522.1 308.599 524.7C304.699 530.3 301.499 536.4 298.799 543.5C297.799 546.2 297.199 547.2 297.499 545.5Z" fill="white"/>
<path d="M836 143.5L761.5 68.9998L787 43.3998C815.5 14.7998 824.8 7.29981 835 4.59981C836.4 4.19981 834.4 5.39981 830.5 7.29981C819.8 12.4998 813.5 17.7998 787 44.3998L762.5 68.9998L836.8 143.3L911 217.5L939.3 189C968.8 159.3 970.9 156.6 976.1 142.7C977.1 139.9 977.8 138.9 977.5 140.5C976.7 144.6 971.8 155 967.9 160.7C964.2 166.1 913.2 218 911.6 218C911 218 877 184.5 836 143.5Z" fill="white"/>
<path d="M314.2 139.3L561 139L561.3 104.7L561.5 70.5L561.8 105.3L562 140L314.8 139.8L67.5 139.5L314.2 139.3Z" fill="white"/>
<path d="M0.29945 132.5C0.29945 130.3 0.49945 129.5 0.69945 130.8C0.89945 132 0.89945 133.8 0.69945 134.8C0.39945 135.7 0.19945 134.7 0.29945 132.5Z" fill="white"/>
<path d="M979.199 129C979.199 127.1 979.399 126.3 979.699 127.3C979.899 128.2 979.899 129.8 979.699 130.8C979.399 131.7 979.199 130.9 979.199 129Z" fill="white"/>
<path d="M1.59958 124.5C4.89958 102.2 31.1996 75.9001 53.4996 72.6001C56.2996 72.2001 55.5996 72.5001 51.2996 73.8001C27.6996 80.9001 9.89958 98.7001 2.79958 122.3C1.49958 126.6 1.19958 127.3 1.59958 124.5Z" fill="white"/>
<path d="M979.299 111.5C979.299 109.3 979.499 108.5 979.699 109.8C979.899 111 979.899 112.8 979.699 113.8C979.399 114.7 979.199 113.7 979.299 111.5Z" fill="white"/>
<path d="M977.6 103.5C976.3 97 971.5 86.5 966.7 79.8C964.2 76.3 948.5 60 931.9 43.4C904.4 16.2 900.8 13 893.8 9.50001C889.6 7.30001 886.3 5.40001 886.5 5.20001C886.7 5.00001 890.1 6.50001 894.2 8.60001C900.7 12 904.9 15.8 934.5 45.4C957.4 68.4 968.6 80.2 970.8 84.2C974.7 90.7 979.3 103.4 978.8 105.8C978.6 106.7 978 105.7 977.6 103.5Z" fill="white"/>
<path d="M59.8 71.2999C61 71.0999 62.8 71.0999 63.8 71.2999C64.7 71.5999 63.7 71.7999 61.5 71.6999C59.3 71.6999 58.5 71.4999 59.8 71.2999Z" fill="white"/>
<path d="M839.5 3.0001C840.6 2.5001 842.2 2.1001 843 2.1001C843.9 2.1001 843.8 2.5001 842.5 3.0001C841.4 3.5001 839.8 3.9001 839 3.9001C838.1 3.9001 838.2 3.5001 839.5 3.0001Z" fill="white"/>
<path d="M855.3 0.299902C857.9 0.0999023 862.1 0.0999023 864.8 0.299902C867.4 0.499902 865.2 0.599902 860 0.599902C854.8 0.599902 852.6 0.499902 855.3 0.299902Z" fill="white"/>
</g>
<defs>
<clipPath id="clip0_106_410">
<rect width="981" height="984" fill="white"/>
</clipPath>
</defs>
</svg>
