<svg width="14" height="16" viewBox="0 0 800 801" fill="none" xmlns="http://www.w3.org/2000/svg">
<path d="M281.8 789.3C272.2 782.8 221.2 748.2 168.4 712.4C87.4004 657.6 17.0004 609.6 8.20039 603.2C7.00039 602.3 5.90039 601.3 5.90039 600.9C5.90039 599.8 53.0004 567.3 126.4 517.9C262.6 426.4 299.1 402 299.6 402.4C299.9 402.7 300.4 428.6 300.8 460C301.1 491.3 301.7 517.2 301.9 517.5C302.7 518.2 343 523.7 368.4 526.5C428 533.2 502.2 536 542.4 533.1C645.1 525.6 713.2 492.7 754.6 430.6C774.5 400.7 787.9 368.2 795.5 331.6C796.9 324.5 798.5 318.2 799 317.7C800.8 315.8 799.5 362.1 796.9 392.4C793.3 434.5 774.5 480.2 746.4 515.1C723.6 543.4 695.6 568.4 667.3 585.7C645.7 598.9 598.7 620.4 567.4 631.4C506.7 652.8 441.4 665.9 315.4 681.9L301.4 683.7L300.8 741.9C300.4 774 300 800.4 299.7 800.6C299.4 800.9 291.4 795.8 281.8 789.3Z" fill="black"/>
<path d="M0.5 464.1C1.6 410.2 5 386.4 15.8 355C27.1 322.3 41.4 298.2 65.3 271.8C98.7 234.9 142.5 206.1 202.4 181.6C262.4 157.1 361 135.8 493.6 118.6L498.9 117.9L499.1 59L499.4 0L633.9 89.9C794.3 196.9 797.4 199 796.1 200.3C795.1 201.3 757.4 226.8 706.4 261.1C693.2 270 641.5 304.8 591.4 338.5C541.4 372.3 500.1 399.7 499.7 399.4C499.2 399.2 498.8 376.2 498.8 348.3C498.7 320.4 498.4 294.5 498 290.6L497.4 283.6L477.4 280.9C400.6 270.6 390.4 269.9 314.4 269.9C256.2 269.8 239.3 270.6 217.9 274.2C136.7 287.8 88.1 313.8 51.2 363.3C30 391.7 14.9 427 3 476.1L0 488.6L0.5 464.1Z" fill="black"/>
</svg>
